PathFileType	4	(X/Y/Z)	2014001\dynamic\2014001_C3_02.trc
DataRate	CameraRate	NumFrames	NumMarkers	Units	OrigDataRate	OrigDataStartFrame	OrigNumFrames
100.000000	100.000000	4	52	mm	100.000000	140	187
Frame#	Time	L_IAS			L_IPS			R_IPS			R_IAS			L_FTC			L_FLE			L_FME			L_FAX			L_TTC			L_FAL			L_TAM			L_FCC			L_FM1			L_FM2			L_FM5			R_FTC			R_FLE			R_FME			R_FAX			R_TTC			R_FAL			R_TAM			R_FCC			R_FM1			R_FM2			R_FM5			CV7			TV10			SXS			SJN			L_SIA			L_SRS			L_SAA			L_SAE			L_HLE			L_HME			L_UOA			L_RSP			L_UHE			L_HM2			L_HM5			R_SIA			R_SRS			R_SAA			R_SAE			R_HLE			R_HME			R_UOA			R_RSP			R_UHE			R_HM2			R_HM5			
		X1	Y1	Z1	X2	Y2	Z2	X3	Y3	Z3	X4	Y4	Z4	X5	Y5	Z5	X6	Y6	Z6	X7	Y7	Z7	X8	Y8	Z8	X9	Y9	Z9	X10	Y10	Z10	X11	Y11	Z11	X12	Y12	Z12	X13	Y13	Z13	X14	Y14	Z14	X15	Y15	Z15	X16	Y16	Z16	X17	Y17	Z17	X18	Y18	Z18	X19	Y19	Z19	X20	Y20	Z20	X21	Y21	Z21	X22	Y22	Z22	X23	Y23	Z23	X24	Y24	Z24	X25	Y25	Z25	X26	Y26	Z26	X27	Y27	Z27	X28	Y28	Z28	X29	Y29	Z29	X30	Y30	Z30	X31	Y31	Z31	X32	Y32	Z32	X33	Y33	Z33	X34	Y34	Z34	X35	Y35	Z35	X36	Y36	Z36	X37	Y37	Z37	X38	Y38	Z38	X39	Y39	Z39	X40	Y40	Z40	X41	Y41	Z41	X42	Y42	Z42	X43	Y43	Z43	X44	Y44	Z44	X45	Y45	Z45	X46	Y46	Z46	X47	Y47	Z47	X48	Y48	Z48	X49	Y49	Z49	X50	Y50	Z50	X51	Y51	Z51	X52	Y52	Z52	

141	1.4	98.14787292480474	857.2802734375005	-331.637664794922	184.3933868408204	906.801879882813	-161.9009246826172	276.1113586425782	902.8693847656255	-169.3116607666016	336.0938720703126	875.8925170898442	-355.0040588378907	47.84008789062501	775.1354980468755	-242.0010528564454	52.62028121948245	431.4287109375002	-196.7062530517579	164.4753570556641	396.517761230469	-233.5833129882814	47.7376174926758	395.9904785156252	-145.6824340820313	88.54258728027347	330.878875732422	-179.5468444824219	95.50188446044925	199.5989532470704	106.8495864868165	178.4992828369141	184.2042846679688	72.88812255859378	148.3274688720704	215.1365203857423	151.8484497070313	180.5476531982422	65.80030059814456	75.32490539550784	121.4851455688477	56.34639739990237	69.8005065917969	79.89652252197268	82.03287506103518	108.5973052978516	402.7625122070315	779.0711059570317	-273.3026428222657	351.6668395996095	438.0803833007815	-374.116180419922	232.746063232422	434.5637512207034	-378.1035156250001	354.5248413085939	371.2323608398439	-363.1148071289064	298.967010498047	371.7046813964845	-422.9640197753909	300.3253173828126	60.68785095214847	-332.975067138672	215.8883209228517	80.10415649414065	-365.4033813476564	245.712371826172	21.47988510131837	-287.699676513672	219.9429779052736	19.86479377746583	-473.7745666503909	284.6777954101564	31.68294143676759	-481.420837402344	333.1244201660157	18.51901054382325	-425.5238952636721	246.1856079101564	1367.411010742188	-188.6497497558594	231.7164001464845	1132.519897460938	-135.4722442626954	223.0010681152345	1148.766845703125	-369.9892578125001	237.2632751464845	1309.396606445313	-320.766082763672	140.6685028076172	1178.091552734375	-127.2886276245118	155.6909942626954	1310.134155273438	-144.4091033935547	44.29260253906251	1315.122924804688	-214.932830810547	59.65018844604495	1326.8388671875	-255.854949951172	-26.45338058471681	1045.08203125	-232.0423278808595	50.80096817016604	1009.913452148438	-207.2128906250001	0.05159591510891917	1010.293273925782	-201.9107055664064	1.298546791076661	812.5186157226567	-326.5010986328126	-65.87478637695315	814.2429199218755	-282.7142944335939	-8.589428901672367	730.533630371094	-356.3718872070314	-72.44626617431643	736.5668945312502	-276.3275451660157	342.5656738281251	1167.437622070313	-128.5306549072266	326.209686279297	1292.806518554688	-150.8588409423829	429.8604736328127	1288.813232421875	-225.6599578857423	419.7895812988284	1294.734252929688	-275.1798706054689	469.0174560546877	989.9426879882817	-227.4676971435548	391.4498291015627	979.9861450195317	-201.4280548095704	436.763854980469	972.9598999023442	-195.8534088134767	445.4697570800784	774.606079101563	-301.8794555664064	503.9607238769534	778.2173461914067	-245.3691406250001	458.7035827636721	681.4700927734377	-318.3977050781251	501.9330749511721	700.5598144531252	-227.5106506347657	
142	1.41	98.87815856933599	859.500122070313	-341.5069885253907	185.9842834472657	908.4667968750005	-171.9085083007813	277.6549377441407	904.5907592773442	-179.8331298828126	337.0195922851564	877.216674804688	-365.5813903808595	49.51441574096683	776.376342773438	-253.0200042724611	52.19942474365237	431.3619384765627	-218.1326599121095	164.725082397461	397.0983581542971	-254.7796478271486	46.95149230957033	396.0788574218752	-167.5773315429688	88.5264587402344	331.071746826172	-200.9658966064454	94.98821258544925	204.9835357666017	88.06580352783206	177.9711151123047	188.3025512695313	54.50460052490237	147.7972869873047	220.4418182373048	133.0791015625001	176.5852813720704	69.1836853027344	57.23084259033206	117.845802307129	60.38417053222659	52.56144714355472	77.05989074707034	88.53126525878909	91.0432052612305	403.8015136718752	780.4895629882817	-283.5067138671876	352.4128417968751	437.7328796386721	-377.660858154297	233.4796447753907	434.2171325683596	-381.4026489257814	355.1600036621095	370.8809814453126	-365.7893371582032	299.6343994140626	370.877655029297	-425.6322021484377	300.344696044922	60.66156768798831	-332.8569946289064	215.8905029296876	80.12880706787112	-365.3587646484376	245.7662811279298	21.50676345825196	-287.5462646484376	219.8759765625001	19.86670875549317	-473.615173339844	284.6212463378907	31.68589973449708	-481.4638671875002	333.1135253906251	18.43636894226075	-425.4396667480471	247.3781585693361	1369.26708984375	-199.5895233154298	233.5846252441407	1134.432006835938	-145.9811096191407	223.3153686523439	1150.359497070313	-380.3953857421876	237.7862396240236	1311.161499023438	-331.5244140625001	142.6438446044922	1180.1533203125	-137.2097625732422	157.2247009277344	1312.141845703125	-154.7513427734376	45.44828414916994	1316.950561523438	-224.7394256591798	60.494499206543	1328.531127929688	-265.7934570312501	-24.67780685424806	1046.754150390625	-239.2984771728517	53.06827545166018	1012.20751953125	-214.4999237060548	2.399311542510987	1012.890930175782	-208.8362884521486	1.481488347053528	812.1000976562505	-328.2377929687501	-65.44871520996097	815.2704467773442	-283.6007080078126	-8.498276710510257	728.668884277344	-354.6614074707032	-72.06831359863284	737.844665527344	-274.486053466797	344.9932556152345	1169.543701171875	-140.2718811035157	327.9526977539064	1294.810913085938	-162.3518371582032	431.0594787597659	1290.951049804688	-238.0410461425782	420.328552246094	1296.8408203125	-287.4160156250001	471.0848693847659	991.6897583007817	-243.9481353759767	394.1923522949221	981.0915527343755	-216.839569091797	439.4977722167971	974.0736694335942	-211.8642730712892	446.8857116699221	777.962768554688	-322.2295227050782	506.142761230469	780.4118652343755	-266.2937927246095	460.2613525390627	685.2869262695315	-340.9796142578126	504.4597778320315	702.3599853515627	-250.1226654052736	
143	1.42	99.54729461669928	861.7831420898442	-351.2484741210939	187.5425109863282	910.1535034179692	-181.7732238769532	279.1716308593751	906.2942504882817	-190.1790161132813	337.8634033203126	878.551635742188	-376.0001831054689	51.07751083374026	777.7885742187505	-263.9036560058595	51.81139755249026	431.6834411621096	-239.4908905029298	165.0337982177735	398.1411743164065	-275.9203491210939	46.31976318359376	396.4299011230471	-189.4302062988282	88.49233245849612	331.6600646972657	-222.7320556640626	94.6555099487305	209.5442504882814	68.46641540527347	177.5249938964844	191.6936340332032	35.14701461791994	147.4614562988282	224.4413909912111	113.5885696411133	172.4508666992188	71.994987487793	37.02405548095705	113.955062866211	64.18919372558597	33.13272094726564	74.12607574462893	94.3260192871094	71.65772247314456	404.7654113769534	781.858032226563	-293.5265197753907	353.1450500488282	437.4373779296877	-380.8504333496095	234.2193908691407	433.9182128906252	-384.3692626953127	355.7928161621095	370.5862121582032	-368.1674804687501	300.2936401367189	370.1445922851564	-427.9776611328127	300.4148559570314	60.63891220092776	-332.7579345703126	215.9462432861329	80.16152954101565	-365.3139648437501	245.8576049804689	21.61054420471192	-287.3712463378907	219.8426666259767	19.82906723022462	-473.4719543457034	284.575653076172	31.58924293518068	-481.5120239257815	333.1018066406251	18.27769851684571	-425.3767700195315	248.4466857910157	1371.1083984375	-210.4716949462892	235.3515472412111	1136.33642578125	-156.349105834961	223.5250091552736	1151.893920898438	-390.5967407226565	238.1661071777345	1312.879272460938	-342.1274719238282	144.5821380615235	1182.24169921875	-146.9473114013672	158.692367553711	1314.16748046875	-164.9473876953126	46.55720520019533	1318.79443359375	-234.336883544922	61.269889831543	1330.232055664063	-275.5258789062501	-23.07194328308106	1048.505981445313	-246.3497009277345	55.06962966918948	1014.524108886719	-221.6085662841798	4.511557102203371	1015.513793945313	-215.5612335205079	1.740809202194215	812.0399780273442	-330.0330505371095	-65.010612487793	816.5693969726567	-284.7398376464845	-8.188916206359867	727.3467407226565	-353.1817932128907	-71.62831115722659	739.4453735351565	-273.0815734863282	347.3746643066407	1171.712768554688	-151.8499450683594	329.6356201171876	1296.866577148438	-173.7074584960938	432.1515808105471	1293.118774414063	-250.3510589599611	420.7262268066409	1298.95263671875	-299.5756225585939	473.2298583984377	993.5828247070317	-260.261199951172	396.9665527343752	982.2374877929692	-232.1948852539064	442.2964172363284	975.2600708007817	-227.7693023681642	448.2783203125002	781.6108398437505	-342.7562866210939	508.2772216796877	782.8217773437505	-287.3983459472657	461.8303527832034	689.4995727539065	-363.9106750488282	506.9312744140627	704.383972167969	-273.0815734863282	
144	1.43	100.2131271362305	864.094848632813	-360.924774169922	189.0468902587891	911.8292846679692	-191.5392608642579	280.6399230957032	907.9492797851567	-200.3574523925782	338.6777648925782	879.8775024414067	-386.248474121094	52.51840972900393	779.3574829101567	-274.733367919922	51.45307540893558	432.413513183594	-260.7163391113282	165.3556671142579	399.6123352050784	-296.9655761718751	45.83736038208009	397.0798339843752	-211.1669464111329	88.39875030517581	332.6365356445314	-244.7593994140626	94.47038269042972	213.1195068359376	48.08239746093753	177.1285247802735	194.2583312988282	14.83925533294678	147.275131225586	227.0463867187501	93.42326354980472	168.2907257080079	74.13589477539065	14.8611240386963	109.955177307129	67.60193634033206	11.62961101531983	71.18475341796878	99.20959472656256	50.52415847778323	405.6640625000002	783.1517944335942	-303.3457641601564	353.854217529297	437.203308105469	-383.7772216796876	234.9514770507814	433.6863098144534	-387.1246032714846	356.4114990234376	370.3634033203126	-370.3372192382814	300.9370727539064	369.5098876953126	-430.089782714844	300.5258789062501	60.64130783081058	-332.6956787109376	216.047332763672	80.21311950683597	-365.2897949218751	245.9849700927736	21.81469917297364	-287.1951904296876	219.8302764892579	19.75378608703614	-473.3537902832034	284.5390930175782	31.41152572631837	-481.5835876464846	333.0992431640626	18.07556533813477	-425.340759277344	249.3851013183595	1372.90478515625	-221.2971496582032	237.0025939941407	1138.199584960938	-166.5962219238282	223.6467437744142	1153.36767578125	-400.6180725097659	238.411834716797	1314.537353515625	-352.5703735351564	146.4653320312501	1184.314575195313	-156.5273132324219	160.0936431884766	1316.171020507813	-175.0021362304688	47.62877655029298	1320.626220703125	-243.7203216552736	61.97956466674808	1331.920043945313	-285.047088623047	-21.63313484191895	1050.312866210938	-253.1753845214845	56.80965042114261	1016.833740234375	-228.5387725830079	6.390561103820804	1018.117553710938	-222.0847473144532	2.067425251007081	812.2890014648442	-331.922332763672	-64.56070709228518	818.0795288085942	-286.1613159179689	-7.686841011047367	726.5231933593752	-352.0294494628907	-71.13777923583987	741.2915649414065	-272.1704406738282	349.6926574707032	1173.904907226563	-163.2638244628907	331.250457763672	1298.936279296875	-184.9168548583985	433.1380920410159	1295.293701171875	-262.5735473632814	420.9906311035159	1301.0546875	-311.6464843750001	475.4514160156252	995.606567382813	-276.391326904297	399.7542419433596	983.417358398438	-247.4844055175782	445.146423339844	976.505737304688	-243.5634765625001	449.637145996094	785.5410766601567	-363.4114379882814	510.3499755859377	785.4522094726567	-308.652801513672	463.3829650878909	694.1063232421877	-387.1239929199221	509.329040527344	706.6499023437502	-296.3399658203126	
